#
#
#

mtllib Castle_House.mtl


#
# pCube1 Mesh Mesh
#
g pCube1 Mesh Mesh


#
# pCube1 Mesh Mesh_pCube1 Mesh_lambert2SG
#
usemtl pCube1 Mesh Mesh_pCube1 Mesh_lambert2SG

v -0.420464 -0.534245 0.423536
v 0.420464 -0.534245 0.423536
v 0.420464 0.251281 0.423536
v -0.420464 0.251281 0.423536
v 0.420464 0.251281 -0.423536
v -0.420464 0.251281 -0.423536
v 0.420464 -0.534245 -0.423536
v -0.420464 -0.534245 -0.423536
vn 0.000000 0.000000 1.000000
vn 0.000000 1.000000 0.000000
vn 0.000000 0.000000 -1.000000
vn 0.000000 -1.000000 0.000000
vn 1.000000 0.000000 0.000000
vn -1.000000 0.000000 0.000000
vt 0.012598 0.012853
vt 0.336085 0.012853
vt 0.336085 0.336339
vt 0.012598 0.336339
vt 0.510983 0.015350
vt 0.586986 0.015350
vt 0.586986 0.091353
vt 0.510983 0.091353
vt 0.339548 0.174560
vt 0.339548 0.013220
vt 0.500887 0.013220
vt 0.500887 0.174560
vt 0.511058 0.015427
vt 0.587061 0.015427
vt 0.587061 0.091430
vt 0.511058 0.091430
vt 0.340053 0.337709
vt 0.340053 0.175771
vt 0.501990 0.175771
vt 0.501990 0.337709
vt 0.340930 0.338540
vt 0.339260 0.176611
vt 0.501189 0.174940
vt 0.502859 0.336869
f 1/1/1 2/2/1 3/3/1 4/4/1
f 4/5/2 3/6/2 5/7/2 6/8/2
f 6/9/3 5/10/3 7/11/3 8/12/3
f 8/13/4 7/14/4 2/15/4 1/16/4
f 2/17/5 7/18/5 5/19/5 3/20/5
f 8/21/6 1/22/6 4/23/6 6/24/6


#
# pCube2 Mesh Mesh
#
g pCube2 Mesh Mesh


#
# pCube2 Mesh Mesh_pCube2 Mesh_lambert2SG
#
usemtl pCube2 Mesh Mesh_pCube2 Mesh_lambert2SG

v -0.400735 0.068656 0.415065
v 0.400735 0.068656 0.415065
v 0.400735 0.370106 0.415065
v -0.400735 0.370106 0.415065
v 0.400735 0.370106 -0.415065
v -0.400735 0.370106 -0.415065
v 0.400735 0.068656 -0.415065
v -0.400735 0.068656 -0.415065
vn 0.000000 0.000000 1.000000
vn 0.000000 1.000000 0.000000
vn 0.000000 0.000000 -1.000000
vn 0.000000 -1.000000 0.000000
vn 1.000000 0.000000 0.000000
vn -1.000000 0.000000 0.000000
vt 0.366720 0.351644
vt 0.528008 0.351644
vt 0.528008 0.512932
vt 0.366720 0.512932
vt 0.531598 0.512931
vt 0.531598 0.351644
vt 0.692885 0.351644
vt 0.692885 0.512931
vt 0.366841 0.513067
vt 0.366841 0.351780
vt 0.528128 0.351780
vt 0.528128 0.513067
vt 0.531591 0.351817
vt 0.692879 0.351817
vt 0.692879 0.513105
vt 0.531591 0.513105
vt 0.367622 0.520964
vt 0.528909 0.520964
vt 0.528909 0.682251
vt 0.367622 0.682251
vt 0.367535 0.520964
vt 0.528822 0.520964
vt 0.528822 0.682251
vt 0.367535 0.682251
f 9/25/7 10/26/7 11/27/7 12/28/7
f 12/29/8 11/30/8 13/31/8 14/32/8
f 14/33/9 13/34/9 15/35/9 16/36/9
f 16/37/10 15/38/10 10/39/10 9/40/10
f 10/41/11 15/42/11 13/43/11 11/44/11
f 16/45/12 9/46/12 12/47/12 14/48/12


#
# pCube3 Mesh Mesh
#
g pCube3 Mesh Mesh


#
# pCube3 Mesh Mesh_pCube3 Mesh_lambert2SG
#
usemtl pCube3 Mesh Mesh_pCube3 Mesh_lambert2SG

v 0.000000 0.197929 0.406594
v 0.396417 0.365602 0.406594
v 0.000000 0.533275 0.406594
v -0.396417 0.365602 0.406594
v 0.000000 0.533275 -0.406594
v -0.396417 0.365602 -0.406594
v 0.396417 0.365602 -0.406594
v 0.000000 0.197929 -0.406594
vn 0.000000 0.000000 1.000000
vn -0.592500 0.805570 0.000000
vn 0.000000 0.000000 -1.000000
vn 0.592500 -0.805570 0.000000
vn 0.592500 0.805570 0.000000
vn -0.592500 -0.805570 0.000000
vt 0.821676 0.131748
vt 0.904080 0.131748
vt 0.904080 0.214152
vt 0.821676 0.214152
vt 0.904080 0.296557
vt 0.821676 0.296557
vt 0.904080 0.378961
vt 0.821676 0.378961
vt 0.904080 0.461365
vt 0.821676 0.461365
vt 0.822358 0.296068
vt 0.822165 0.213664
vt 0.904569 0.213471
vt 0.904762 0.295875
vt 0.739272 0.131748
vt 0.739272 0.214152
f 17/49/13 18/50/13 19/51/13 20/52/13
f 20/52/14 19/51/14 21/53/14 22/54/14
f 22/54/15 21/53/15 23/55/15 24/56/15
f 24/56/16 23/55/16 18/57/16 17/58/16
f 18/59/17 23/60/17 21/61/17 19/62/17
f 24/63/18 17/49/18 20/52/18 22/64/18
