# This file uses centimeters as units for non-parametric coordinates.

mtllib CharacterPointer.mtl
g default
v 0.595144 -0.307507 -0.336778
v 0.367333 -0.500000 -0.354714
v 0.450657 -0.307507 -0.567496
v -0.131007 -0.314729 0.619650
v -0.000000 -0.500000 0.382520
v 0.131007 -0.314729 0.619650
v -0.450657 -0.307507 -0.567496
v -0.367333 -0.500000 -0.354714
v -0.595144 -0.307507 -0.336778
v 0.450657 0.307507 -0.567496
v 0.367333 0.500000 -0.354714
v 0.595144 0.307507 -0.336778
v -0.367333 0.500000 -0.354714
v -0.450657 0.307507 -0.567496
v -0.595144 0.307507 -0.336778
v 0.131007 0.314729 0.619650
v -0.000000 0.500000 0.382520
v -0.131007 0.314729 0.619650
vt 0.378643 0.136277
vt 0.388334 0.569716
vt 0.397052 -0.017528
vt 0.439012 0.027508
vt 0.596341 0.953681
vt 0.578684 0.953680
vt 0.596341 0.796316
vt 0.671318 0.046318
vt 0.579706 0.168199
vt 0.604806 0.312686
vt 0.416004 0.597386
vt 0.578745 0.485231
vt 0.449833 0.662822
vt 0.578684 0.796316
vt 0.625000 0.539585
vt 0.625000 0.703682
vt 0.580615 0.695003
vt 0.577874 0.039878
vt 0.406313 0.163947
vt 0.578745 0.331478
vt 0.582341 0.567269
vt 0.411293 0.755235
vt 0.414422 0.949610
vt 0.828682 0.046318
vt 0.826877 0.210415
vt 0.574823 -0.003858
vt 0.673123 0.210415
vt 0.604806 0.466439
vn 0.847523 -0.000000 -0.530759
vn 0.847523 -0.000000 -0.530759
vn 0.847523 -0.000000 -0.530759
vn 0.847523 -0.000000 -0.530759
vn 0.590481 -0.754422 0.286669
vn 0.590481 -0.754422 0.286668
vn 0.590481 -0.754422 0.286669
vn 0.590481 -0.754422 0.286669
vn -0.000000 -0.741578 -0.670866
vn -0.000000 -0.741578 -0.670866
vn -0.000000 -0.741578 -0.670866
vn -0.000000 -0.741578 -0.670866
vn -0.000000 -0.000000 1.000000
vn -0.000000 -0.000000 1.000000
vn -0.000000 -0.000000 1.000000
vn -0.000000 -0.000000 1.000000
vn -0.590481 -0.754422 0.286668
vn -0.590481 -0.754422 0.286668
vn -0.590481 -0.754422 0.286668
vn -0.590481 -0.754422 0.286668
vn -0.847522 0.000000 -0.530759
vn -0.847522 0.000000 -0.530759
vn -0.847522 0.000000 -0.530759
vn -0.847522 0.000000 -0.530759
vn -0.000000 0.741578 -0.670867
vn -0.000000 0.741578 -0.670867
vn -0.000000 0.741578 -0.670867
vn -0.000000 0.741578 -0.670867
vn 0.590481 0.754422 0.286668
vn 0.590481 0.754422 0.286669
vn 0.590481 0.754422 0.286669
vn 0.590481 0.754422 0.286669
vn -0.590481 0.754422 0.286669
vn -0.590481 0.754422 0.286669
vn -0.590481 0.754422 0.286669
vn -0.590481 0.754422 0.286669
vn 0.000000 -1.000000 -0.000000
vn 0.000000 -1.000000 -0.000000
vn 0.000000 -1.000000 -0.000000
vn 0.000000 0.000000 -1.000000
vn 0.000000 0.000000 -1.000000
vn 0.000000 0.000000 -1.000000
vn 0.000000 0.000000 -1.000000
vn 0.000000 1.000000 -0.000000
vn 0.000000 1.000000 -0.000000
vn 0.000000 1.000000 -0.000000
vn 0.899661 -0.000000 0.436589
vn 0.899661 -0.000000 0.436589
vn 0.899661 -0.000000 0.436589
vn 0.899661 -0.000000 0.436589
vn -0.899661 0.000000 0.436589
vn -0.899661 0.000000 0.436589
vn -0.899661 0.000000 0.436589
vn -0.899661 0.000000 0.436589
vn 0.613360 -0.690104 -0.384116
vn 0.613360 -0.690104 -0.384116
vn 0.613360 -0.690104 -0.384116
vn 0.000000 -0.788003 0.615672
vn 0.000000 -0.788003 0.615671
vn 0.000000 -0.788003 0.615672
vn -0.613360 -0.690104 -0.384116
vn -0.613360 -0.690104 -0.384116
vn -0.613360 -0.690104 -0.384116
vn 0.613360 0.690104 -0.384116
vn 0.613360 0.690104 -0.384116
vn 0.613360 0.690104 -0.384116
vn -0.613360 0.690104 -0.384116
vn -0.613360 0.690104 -0.384116
vn -0.613360 0.690104 -0.384116
vn 0.000000 0.788003 0.615672
vn 0.000000 0.788003 0.615671
vn 0.000000 0.788003 0.615672
s off
g pCube1
usemtl initialShadingGroup
f 1/1/1 3/19/2 10/11/3 12/2/4
f 2/4/5 1/3/6 6/26/7 5/18/8
f 3/19/9 2/4/10 8/9/11 7/20/12
f 4/5/13 6/6/14 16/14/15 18/7/16
f 5/18/17 4/8/18 9/27/19 8/9/20
f 7/20/21 9/10/22 15/28/23 14/12/24
f 11/13/25 10/11/26 14/12/27 13/21/28
f 12/22/29 11/13/30 17/17/31 16/14/32
f 13/21/33 15/15/34 18/16/35 17/17/36
f 2/4/37 5/18/38 8/9/39
f 3/19/40 7/20/41 14/12/42 10/11/43
f 11/13/44 13/21/45 17/17/46
f 12/22/47 16/14/48 6/6/49 1/23/50
f 4/8/51 18/24/52 15/25/53 9/27/54
f 1/3/55 2/4/56 3/19/57
f 4/8/58 5/18/59 6/26/60
f 7/20/61 8/9/62 9/27/63
f 10/11/64 11/13/65 12/2/66
f 13/21/67 14/12/68 15/28/69
f 16/14/70 17/17/71 18/16/72
