# This file uses centimeters as units for non-parametric coordinates.

mtllib DualSidedTexQuad.mtl
g default
v -0.500000 -0.500000 0.000050
v 0.500000 -0.500000 0.000050
v -0.500000 0.500000 0.000050
v 0.500000 0.500000 0.000050
v -0.500000 0.500000 -0.000050
v 0.500000 0.500000 -0.000050
v -0.500000 -0.500000 -0.000050
v 0.500000 -0.500000 -0.000050
vt 0.000271 0.999729
vt 0.998889 0.001111
vt -0.000271 0.999729
vt -0.000271 1.000271
vt 0.998889 0.998889
vt 0.000271 1.000271
vt -0.000271 0.999729
vt 0.001111 0.001111
vt -0.000271 1.000271
vt 0.000271 1.000271
vt 0.000271 0.999729
vt 0.000271 1.000271
vt -0.000271 0.999729
vt -0.000271 1.000271
vt 0.001111 0.998889
vt 0.000271 0.999729
vt -0.000271 1.000271
vt 0.998889 0.001111
vt -0.000271 0.999729
vt 0.998889 0.998889
vt 0.000271 0.999729
vt 0.001111 0.001111
vt 0.001111 0.998889
vt 0.000271 1.000271
vn 0.000000 0.000000 1.000000
vn 0.000000 0.000000 1.000000
vn 0.000000 0.000000 1.000000
vn 0.000000 0.000000 1.000000
vn 0.000000 1.000000 0.000000
vn 0.000000 1.000000 0.000000
vn 0.000000 1.000000 0.000000
vn 0.000000 1.000000 0.000000
vn 0.000000 0.000000 -1.000000
vn 0.000000 0.000000 -1.000000
vn 0.000000 0.000000 -1.000000
vn 0.000000 0.000000 -1.000000
vn 0.000000 -1.000000 0.000000
vn 0.000000 -1.000000 0.000000
vn 0.000000 -1.000000 0.000000
vn 0.000000 -1.000000 0.000000
vn 1.000000 0.000000 0.000000
vn 1.000000 0.000000 0.000000
vn 1.000000 0.000000 0.000000
vn 1.000000 0.000000 0.000000
vn -1.000000 0.000000 0.000000
vn -1.000000 0.000000 0.000000
vn -1.000000 0.000000 0.000000
vn -1.000000 0.000000 0.000000
s off
g pCube1
usemtl blinn1SG
f 1/22/1 2/2/2 4/20/3 3/23/4
f 3/3/5 4/21/6 6/6/7 5/17/8
f 5/5/9 6/15/10 8/8/11 7/18/12
f 7/7/13 8/16/14 2/10/15 1/9/16
f 2/19/17 8/11/18 6/12/19 4/4/20
f 7/13/21 1/1/22 3/24/23 5/14/24
